<mxfile host="app.diagrams.net" modified="2021-10-15T15:34:55.381Z" agent="5.0 (Macintosh; Intel Mac OS X 10_15_7) AppleWebKit/537.36 (KHTML, like Gecko) Chrome/94.0.4606.71 Safari/537.36" etag="zsHb4iM2pYLkDAwbsUBv" version="15.4.3" type="github">
  <diagram id="oAO2pZPT0fUoAgwEP57n" name="Page-1">
    <mxGraphModel dx="1181" dy="631" grid="1" gridSize="10" guides="1" tooltips="1" connect="1" arrows="1" fold="1" page="1" pageScale="1" pageWidth="827" pageHeight="1169" math="0" shadow="0">
      <root>
        <mxCell id="0" />
        <mxCell id="1" parent="0" />
        <mxCell id="HYF0p5ySEpvF-ASJsfjQ-79" value="" style="rounded=1;whiteSpace=wrap;html=1;fontSize=16;fillColor=#f5f5f5;align=left;dashed=1;strokeColor=#666666;fontColor=#333333;" vertex="1" parent="1">
          <mxGeometry x="110" y="587" width="510" height="163" as="geometry" />
        </mxCell>
        <mxCell id="HYF0p5ySEpvF-ASJsfjQ-60" value="" style="shape=singleArrow;whiteSpace=wrap;html=1;arrowWidth=0.3422222222222217;arrowSize=0.3146666666666665;fontSize=20;fillColor=#d5e8d4;strokeColor=#82b366;" vertex="1" parent="1">
          <mxGeometry x="468" y="622" width="112.5" height="90" as="geometry" />
        </mxCell>
        <mxCell id="HYF0p5ySEpvF-ASJsfjQ-55" value="" style="shape=singleArrow;whiteSpace=wrap;html=1;arrowWidth=0.3422222222222217;arrowSize=0.3146666666666665;fontSize=20;fillColor=#f8cecc;strokeColor=#b85450;" vertex="1" parent="1">
          <mxGeometry x="148" y="622" width="112.5" height="90" as="geometry" />
        </mxCell>
        <mxCell id="HYF0p5ySEpvF-ASJsfjQ-34" value="" style="shape=singleArrow;whiteSpace=wrap;html=1;arrowWidth=0.3422222222222217;arrowSize=0.3146666666666665;fontSize=20;fillColor=#dae8fc;strokeColor=#6c8ebf;" vertex="1" parent="1">
          <mxGeometry x="308" y="622" width="112.5" height="90" as="geometry" />
        </mxCell>
        <mxCell id="HYF0p5ySEpvF-ASJsfjQ-19" value="" style="rounded=1;whiteSpace=wrap;html=1;fontSize=20;fillColor=#dae8fc;strokeColor=#6c8ebf;" vertex="1" parent="1">
          <mxGeometry x="110" y="330" width="510" height="200" as="geometry" />
        </mxCell>
        <mxCell id="HYF0p5ySEpvF-ASJsfjQ-12" value="" style="ellipse;shape=cloud;whiteSpace=wrap;html=1;fillColor=#f8cecc;strokeColor=#b85450;" vertex="1" parent="1">
          <mxGeometry x="100" y="340" width="270" height="190" as="geometry" />
        </mxCell>
        <mxCell id="HYF0p5ySEpvF-ASJsfjQ-88" style="edgeStyle=orthogonalEdgeStyle;rounded=0;orthogonalLoop=1;jettySize=auto;html=1;exitX=0.5;exitY=1;exitDx=0;exitDy=0;entryX=0.442;entryY=-0.004;entryDx=0;entryDy=0;entryPerimeter=0;fontSize=16;startArrow=none;startFill=0;endArrow=classic;endFill=1;" edge="1" parent="1" source="HYF0p5ySEpvF-ASJsfjQ-13" target="HYF0p5ySEpvF-ASJsfjQ-50">
          <mxGeometry relative="1" as="geometry" />
        </mxCell>
        <mxCell id="HYF0p5ySEpvF-ASJsfjQ-13" value="&lt;font style=&quot;font-size: 20px&quot;&gt;Data&lt;br&gt;Center&lt;/font&gt;" style="whiteSpace=wrap;html=1;aspect=fixed;fillColor=#f5f5f5;strokeColor=#666666;fontColor=#333333;" vertex="1" parent="1">
          <mxGeometry x="161.25" y="410" width="70" height="70" as="geometry" />
        </mxCell>
        <mxCell id="HYF0p5ySEpvF-ASJsfjQ-87" style="edgeStyle=orthogonalEdgeStyle;rounded=0;orthogonalLoop=1;jettySize=auto;html=1;exitX=0.5;exitY=1;exitDx=0;exitDy=0;entryX=0.398;entryY=0;entryDx=0;entryDy=0;entryPerimeter=0;fontSize=16;startArrow=none;startFill=0;endArrow=classic;endFill=1;" edge="1" parent="1" source="HYF0p5ySEpvF-ASJsfjQ-14" target="HYF0p5ySEpvF-ASJsfjQ-21">
          <mxGeometry relative="1" as="geometry" />
        </mxCell>
        <mxCell id="HYF0p5ySEpvF-ASJsfjQ-89" style="edgeStyle=orthogonalEdgeStyle;rounded=0;orthogonalLoop=1;jettySize=auto;html=1;exitX=0.5;exitY=1;exitDx=0;exitDy=0;entryX=0.581;entryY=-0.018;entryDx=0;entryDy=0;entryPerimeter=0;fontSize=16;startArrow=none;startFill=0;endArrow=classic;endFill=1;" edge="1" parent="1" source="HYF0p5ySEpvF-ASJsfjQ-14" target="HYF0p5ySEpvF-ASJsfjQ-50">
          <mxGeometry relative="1" as="geometry" />
        </mxCell>
        <mxCell id="HYF0p5ySEpvF-ASJsfjQ-14" value="&lt;font style=&quot;font-size: 20px&quot;&gt;Data&lt;br&gt;Center&lt;/font&gt;" style="whiteSpace=wrap;html=1;aspect=fixed;fillColor=#f5f5f5;strokeColor=#666666;fontColor=#333333;" vertex="1" parent="1">
          <mxGeometry x="255" y="410" width="70" height="70" as="geometry" />
        </mxCell>
        <mxCell id="HYF0p5ySEpvF-ASJsfjQ-15" value="" style="ellipse;shape=cloud;whiteSpace=wrap;html=1;fillColor=#d5e8d4;strokeColor=#82b366;" vertex="1" parent="1">
          <mxGeometry x="350" y="340" width="270" height="190" as="geometry" />
        </mxCell>
        <mxCell id="HYF0p5ySEpvF-ASJsfjQ-85" style="edgeStyle=orthogonalEdgeStyle;rounded=0;orthogonalLoop=1;jettySize=auto;html=1;exitX=0.5;exitY=1;exitDx=0;exitDy=0;fontSize=16;startArrow=none;startFill=0;endArrow=classic;endFill=1;entryX=0.605;entryY=-0.032;entryDx=0;entryDy=0;entryPerimeter=0;" edge="1" parent="1" source="HYF0p5ySEpvF-ASJsfjQ-16" target="HYF0p5ySEpvF-ASJsfjQ-21">
          <mxGeometry relative="1" as="geometry" />
        </mxCell>
        <mxCell id="HYF0p5ySEpvF-ASJsfjQ-86" style="edgeStyle=orthogonalEdgeStyle;rounded=0;orthogonalLoop=1;jettySize=auto;html=1;exitX=0.5;exitY=1;exitDx=0;exitDy=0;entryX=0.446;entryY=-0.032;entryDx=0;entryDy=0;entryPerimeter=0;fontSize=16;startArrow=none;startFill=0;endArrow=classic;endFill=1;" edge="1" parent="1" source="HYF0p5ySEpvF-ASJsfjQ-16" target="HYF0p5ySEpvF-ASJsfjQ-51">
          <mxGeometry relative="1" as="geometry" />
        </mxCell>
        <mxCell id="HYF0p5ySEpvF-ASJsfjQ-16" value="&lt;font style=&quot;font-size: 20px&quot;&gt;Data&lt;br&gt;Center&lt;/font&gt;" style="whiteSpace=wrap;html=1;aspect=fixed;fillColor=#f5f5f5;strokeColor=#666666;fontColor=#333333;" vertex="1" parent="1">
          <mxGeometry x="414" y="410" width="70" height="70" as="geometry" />
        </mxCell>
        <mxCell id="HYF0p5ySEpvF-ASJsfjQ-84" style="edgeStyle=orthogonalEdgeStyle;rounded=0;orthogonalLoop=1;jettySize=auto;html=1;exitX=0.5;exitY=1;exitDx=0;exitDy=0;entryX=0.577;entryY=-0.032;entryDx=0;entryDy=0;entryPerimeter=0;fontSize=16;startArrow=none;startFill=0;endArrow=classic;endFill=1;" edge="1" parent="1" source="HYF0p5ySEpvF-ASJsfjQ-17" target="HYF0p5ySEpvF-ASJsfjQ-51">
          <mxGeometry relative="1" as="geometry" />
        </mxCell>
        <mxCell id="HYF0p5ySEpvF-ASJsfjQ-17" value="&lt;font style=&quot;font-size: 20px&quot;&gt;Data&lt;br&gt;Center&lt;/font&gt;" style="whiteSpace=wrap;html=1;aspect=fixed;fillColor=#f5f5f5;strokeColor=#666666;fontColor=#333333;" vertex="1" parent="1">
          <mxGeometry x="499.75" y="410" width="70" height="70" as="geometry" />
        </mxCell>
        <mxCell id="HYF0p5ySEpvF-ASJsfjQ-18" value="Distributed Application" style="text;html=1;align=center;verticalAlign=middle;resizable=0;points=[];autosize=1;strokeColor=none;fillColor=none;fontSize=20;" vertex="1" parent="1">
          <mxGeometry x="260" y="330" width="210" height="30" as="geometry" />
        </mxCell>
        <mxCell id="HYF0p5ySEpvF-ASJsfjQ-74" style="edgeStyle=orthogonalEdgeStyle;rounded=0;orthogonalLoop=1;jettySize=auto;html=1;exitX=0.5;exitY=1;exitDx=0;exitDy=0;exitPerimeter=0;entryX=0.5;entryY=0;entryDx=0;entryDy=0;fontSize=16;startArrow=none;startFill=0;endArrow=classic;endFill=1;" edge="1" parent="1" source="HYF0p5ySEpvF-ASJsfjQ-21" target="HYF0p5ySEpvF-ASJsfjQ-35">
          <mxGeometry relative="1" as="geometry" />
        </mxCell>
        <mxCell id="HYF0p5ySEpvF-ASJsfjQ-75" style="edgeStyle=orthogonalEdgeStyle;rounded=0;orthogonalLoop=1;jettySize=auto;html=1;exitX=0.5;exitY=1;exitDx=0;exitDy=0;exitPerimeter=0;fontSize=16;startArrow=none;startFill=0;endArrow=classic;endFill=1;" edge="1" parent="1" source="HYF0p5ySEpvF-ASJsfjQ-21" target="HYF0p5ySEpvF-ASJsfjQ-40">
          <mxGeometry relative="1" as="geometry" />
        </mxCell>
        <mxCell id="HYF0p5ySEpvF-ASJsfjQ-21" value="Shared State" style="shape=cylinder3;whiteSpace=wrap;html=1;boundedLbl=1;backgroundOutline=1;size=6.166666666666629;fontSize=20;fillColor=#dae8fc;strokeColor=#6c8ebf;" vertex="1" parent="1">
          <mxGeometry x="294.25" y="540" width="140" height="40" as="geometry" />
        </mxCell>
        <mxCell id="HYF0p5ySEpvF-ASJsfjQ-29" value="PMLog" style="text;html=1;align=center;verticalAlign=middle;resizable=0;points=[];autosize=1;strokeColor=none;fillColor=none;fontSize=20;" vertex="1" parent="1">
          <mxGeometry x="324.25" y="720" width="80" height="30" as="geometry" />
        </mxCell>
        <mxCell id="HYF0p5ySEpvF-ASJsfjQ-31" value="Region 1" style="text;html=1;align=center;verticalAlign=middle;resizable=0;points=[];autosize=1;strokeColor=none;fillColor=none;fontSize=20;" vertex="1" parent="1">
          <mxGeometry x="185" y="380" width="100" height="30" as="geometry" />
        </mxCell>
        <mxCell id="HYF0p5ySEpvF-ASJsfjQ-32" value="Region 2" style="text;html=1;align=center;verticalAlign=middle;resizable=0;points=[];autosize=1;strokeColor=none;fillColor=none;fontSize=20;" vertex="1" parent="1">
          <mxGeometry x="435" y="380" width="100" height="30" as="geometry" />
        </mxCell>
        <mxCell id="HYF0p5ySEpvF-ASJsfjQ-35" value="" style="whiteSpace=wrap;html=1;aspect=fixed;fontSize=20;fillColor=#f5f5f5;strokeColor=#666666;fontColor=#333333;" vertex="1" parent="1">
          <mxGeometry x="313" y="657" width="20" height="20" as="geometry" />
        </mxCell>
        <mxCell id="HYF0p5ySEpvF-ASJsfjQ-36" value="" style="whiteSpace=wrap;html=1;aspect=fixed;fontSize=20;fillColor=#f5f5f5;strokeColor=#666666;fontColor=#333333;" vertex="1" parent="1">
          <mxGeometry x="343" y="657" width="20" height="20" as="geometry" />
        </mxCell>
        <mxCell id="HYF0p5ySEpvF-ASJsfjQ-37" value="" style="whiteSpace=wrap;html=1;aspect=fixed;fontSize=20;fillColor=#f5f5f5;strokeColor=#666666;fontColor=#333333;" vertex="1" parent="1">
          <mxGeometry x="373" y="657" width="20" height="20" as="geometry" />
        </mxCell>
        <mxCell id="HYF0p5ySEpvF-ASJsfjQ-40" value="..." style="text;html=1;align=center;verticalAlign=middle;resizable=0;points=[];autosize=1;strokeColor=none;fillColor=none;fontSize=20;" vertex="1" parent="1">
          <mxGeometry x="390.5" y="647" width="30" height="30" as="geometry" />
        </mxCell>
        <mxCell id="HYF0p5ySEpvF-ASJsfjQ-50" value="Shared State" style="shape=cylinder3;whiteSpace=wrap;html=1;boundedLbl=1;backgroundOutline=1;size=6.166666666666629;fontSize=20;fillColor=#f8cecc;strokeColor=#b85450;" vertex="1" parent="1">
          <mxGeometry x="134.25" y="540" width="140" height="40" as="geometry" />
        </mxCell>
        <mxCell id="HYF0p5ySEpvF-ASJsfjQ-77" style="edgeStyle=orthogonalEdgeStyle;rounded=0;orthogonalLoop=1;jettySize=auto;html=1;exitX=0.5;exitY=1;exitDx=0;exitDy=0;exitPerimeter=0;entryX=0.5;entryY=0;entryDx=0;entryDy=0;fontSize=16;startArrow=none;startFill=0;endArrow=classic;endFill=1;" edge="1" parent="1" source="HYF0p5ySEpvF-ASJsfjQ-51" target="HYF0p5ySEpvF-ASJsfjQ-61">
          <mxGeometry relative="1" as="geometry" />
        </mxCell>
        <mxCell id="HYF0p5ySEpvF-ASJsfjQ-78" style="edgeStyle=orthogonalEdgeStyle;rounded=0;orthogonalLoop=1;jettySize=auto;html=1;exitX=0.5;exitY=1;exitDx=0;exitDy=0;exitPerimeter=0;fontSize=16;startArrow=none;startFill=0;endArrow=classic;endFill=1;" edge="1" parent="1" source="HYF0p5ySEpvF-ASJsfjQ-51" target="HYF0p5ySEpvF-ASJsfjQ-62">
          <mxGeometry relative="1" as="geometry" />
        </mxCell>
        <mxCell id="HYF0p5ySEpvF-ASJsfjQ-51" value="Shared State" style="shape=cylinder3;whiteSpace=wrap;html=1;boundedLbl=1;backgroundOutline=1;size=6.166666666666629;fontSize=20;fillColor=#d5e8d4;strokeColor=#82b366;" vertex="1" parent="1">
          <mxGeometry x="454.25" y="540" width="140" height="40" as="geometry" />
        </mxCell>
        <mxCell id="HYF0p5ySEpvF-ASJsfjQ-56" value="" style="whiteSpace=wrap;html=1;aspect=fixed;fontSize=20;fillColor=#f5f5f5;strokeColor=#666666;fontColor=#333333;" vertex="1" parent="1">
          <mxGeometry x="153" y="657" width="20" height="20" as="geometry" />
        </mxCell>
        <mxCell id="HYF0p5ySEpvF-ASJsfjQ-57" value="" style="whiteSpace=wrap;html=1;aspect=fixed;fontSize=20;fillColor=#f5f5f5;strokeColor=#666666;fontColor=#333333;" vertex="1" parent="1">
          <mxGeometry x="183" y="657" width="20" height="20" as="geometry" />
        </mxCell>
        <mxCell id="HYF0p5ySEpvF-ASJsfjQ-58" value="" style="whiteSpace=wrap;html=1;aspect=fixed;fontSize=20;fillColor=#f5f5f5;strokeColor=#666666;fontColor=#333333;" vertex="1" parent="1">
          <mxGeometry x="213" y="657" width="20" height="20" as="geometry" />
        </mxCell>
        <mxCell id="HYF0p5ySEpvF-ASJsfjQ-59" value="..." style="text;html=1;align=center;verticalAlign=middle;resizable=0;points=[];autosize=1;strokeColor=none;fillColor=none;fontSize=20;" vertex="1" parent="1">
          <mxGeometry x="230.5" y="647" width="30" height="30" as="geometry" />
        </mxCell>
        <mxCell id="HYF0p5ySEpvF-ASJsfjQ-61" value="" style="whiteSpace=wrap;html=1;aspect=fixed;fontSize=20;fillColor=#f5f5f5;strokeColor=#666666;fontColor=#333333;" vertex="1" parent="1">
          <mxGeometry x="473" y="657" width="20" height="20" as="geometry" />
        </mxCell>
        <mxCell id="HYF0p5ySEpvF-ASJsfjQ-62" value="" style="whiteSpace=wrap;html=1;aspect=fixed;fontSize=20;fillColor=#f5f5f5;strokeColor=#666666;fontColor=#333333;" vertex="1" parent="1">
          <mxGeometry x="503" y="657" width="20" height="20" as="geometry" />
        </mxCell>
        <mxCell id="HYF0p5ySEpvF-ASJsfjQ-63" value="" style="whiteSpace=wrap;html=1;aspect=fixed;fontSize=20;fillColor=#f5f5f5;strokeColor=#666666;fontColor=#333333;" vertex="1" parent="1">
          <mxGeometry x="533" y="657" width="20" height="20" as="geometry" />
        </mxCell>
        <mxCell id="HYF0p5ySEpvF-ASJsfjQ-64" value="..." style="text;html=1;align=center;verticalAlign=middle;resizable=0;points=[];autosize=1;strokeColor=none;fillColor=none;fontSize=20;" vertex="1" parent="1">
          <mxGeometry x="550.5" y="647" width="30" height="30" as="geometry" />
        </mxCell>
        <mxCell id="HYF0p5ySEpvF-ASJsfjQ-65" value="Update" style="text;html=1;align=center;verticalAlign=middle;resizable=0;points=[];autosize=1;strokeColor=none;fillColor=none;fontSize=16;" vertex="1" parent="1">
          <mxGeometry x="126.75" y="502" width="70" height="20" as="geometry" />
        </mxCell>
        <mxCell id="HYF0p5ySEpvF-ASJsfjQ-66" value="Get-&lt;br&gt;Updates" style="text;html=1;align=left;verticalAlign=middle;resizable=0;points=[];autosize=1;strokeColor=none;fillColor=none;fontSize=16;" vertex="1" parent="1">
          <mxGeometry x="540" y="484" width="80" height="40" as="geometry" />
        </mxCell>
        <mxCell id="HYF0p5ySEpvF-ASJsfjQ-70" value="" style="endArrow=classic;html=1;rounded=0;fontSize=16;edgeStyle=orthogonalEdgeStyle;exitX=0.5;exitY=1;exitDx=0;exitDy=0;exitPerimeter=0;entryX=0.503;entryY=0;entryDx=0;entryDy=0;entryPerimeter=0;" edge="1" parent="1" source="HYF0p5ySEpvF-ASJsfjQ-50" target="HYF0p5ySEpvF-ASJsfjQ-59">
          <mxGeometry width="50" height="50" relative="1" as="geometry">
            <mxPoint x="269.25" y="620" as="sourcePoint" />
            <mxPoint x="319.25" y="570" as="targetPoint" />
          </mxGeometry>
        </mxCell>
        <mxCell id="HYF0p5ySEpvF-ASJsfjQ-71" value="Append" style="text;html=1;align=center;verticalAlign=middle;resizable=0;points=[];autosize=1;strokeColor=none;fillColor=none;fontSize=16;" vertex="1" parent="1">
          <mxGeometry x="206" y="591" width="70" height="20" as="geometry" />
        </mxCell>
        <mxCell id="HYF0p5ySEpvF-ASJsfjQ-76" value="Read" style="text;html=1;align=center;verticalAlign=middle;resizable=0;points=[];autosize=1;strokeColor=none;fillColor=none;fontSize=16;" vertex="1" parent="1">
          <mxGeometry x="528" y="591" width="50" height="20" as="geometry" />
        </mxCell>
        <mxCell id="HYF0p5ySEpvF-ASJsfjQ-80" value="Log" style="text;html=1;align=center;verticalAlign=middle;resizable=0;points=[];autosize=1;strokeColor=none;fillColor=none;fontSize=16;" vertex="1" parent="1">
          <mxGeometry x="173" y="682" width="40" height="20" as="geometry" />
        </mxCell>
        <mxCell id="HYF0p5ySEpvF-ASJsfjQ-81" value="Log" style="text;html=1;align=center;verticalAlign=middle;resizable=0;points=[];autosize=1;strokeColor=none;fillColor=none;fontSize=16;" vertex="1" parent="1">
          <mxGeometry x="333" y="682" width="40" height="20" as="geometry" />
        </mxCell>
        <mxCell id="HYF0p5ySEpvF-ASJsfjQ-82" value="Log" style="text;html=1;align=center;verticalAlign=middle;resizable=0;points=[];autosize=1;strokeColor=none;fillColor=none;fontSize=16;" vertex="1" parent="1">
          <mxGeometry x="493" y="682" width="40" height="20" as="geometry" />
        </mxCell>
      </root>
    </mxGraphModel>
  </diagram>
</mxfile>
